<svg width="137" height="36" viewBox="0 0 137 36" fill="none" xmlns="http://www.w3.org/2000/svg">
<path d="M13.488 28.88L11.328 25.976C10.688 26.104 10.064 26.168 9.456 26.168C7.872 26.168 6.416 25.8 5.088 25.064C3.776 24.328 2.728 23.304 1.944 21.992C1.176 20.664 0.792 19.176 0.792 17.528C0.792 15.88 1.176 14.4 1.944 13.088C2.728 11.776 3.776 10.752 5.088 10.016C6.416 9.28 7.872 8.912 9.456 8.912C11.04 8.912 12.488 9.28 13.8 10.016C15.128 10.752 16.168 11.776 16.92 13.088C17.688 14.4 18.072 15.88 18.072 17.528C18.072 18.968 17.776 20.288 17.184 21.488C16.608 22.672 15.8 23.656 14.76 24.44L18.456 28.88H13.488ZM4.992 17.528C4.992 19.016 5.392 20.208 6.192 21.104C7.008 21.984 8.096 22.424 9.456 22.424C10.8 22.424 11.872 21.976 12.672 21.08C13.488 20.184 13.896 19 13.896 17.528C13.896 16.04 13.488 14.856 12.672 13.976C11.872 13.08 10.8 12.632 9.456 12.632C8.096 12.632 7.008 13.072 6.192 13.952C5.392 14.832 4.992 16.024 4.992 17.528ZM24.4341 9.152V19.232C24.4341 20.24 24.6821 21.016 25.1781 21.56C25.6741 22.104 26.4021 22.376 27.3621 22.376C28.3221 22.376 29.0581 22.104 29.5701 21.56C30.0821 21.016 30.3381 20.24 30.3381 19.232V9.152H34.4421V19.208C34.4421 20.712 34.1221 21.984 33.4821 23.024C32.8421 24.064 31.9781 24.848 30.8901 25.376C29.8181 25.904 28.6181 26.168 27.2901 26.168C25.9621 26.168 24.7701 25.912 23.7141 25.4C22.6741 24.872 21.8501 24.088 21.2421 23.048C20.6341 21.992 20.3301 20.712 20.3301 19.208V9.152H24.4341ZM41.4279 9.152V26H37.3239V9.152H41.4279ZM48.7701 22.64H56.0181V26H44.1141V22.88L51.3141 12.512H44.1141V9.152H56.0181V12.272L48.7701 22.64ZM69.3549 9.272V11.048H64.7949V26H62.6109V11.048H58.0269V9.272H69.3549ZM74.2273 9.272V26H72.0433V9.272H74.2273ZM94.9176 9.392V26H92.7336V13.616L87.2136 26H85.6776L80.1336 13.592V26H77.9496V9.392H80.3016L86.4456 23.12L92.5896 9.392H94.9176ZM100.805 11.048V16.64H106.901V18.44H100.805V24.2H107.621V26H98.6214V9.248H107.621V11.048H100.805Z" fill="#21888E"/>
<path d="M119.176 16.5C119.696 12.3345 123.249 9.11111 127.555 9.11111C132.219 9.11111 136 12.8918 136 17.5556C136 22.2193 132.219 26 127.555 26H122.278M127.556 17.5556V13.3333M125.445 7H129.667M117 19.6667H122.278M119.111 22.8333H124.389" stroke="#21888E" stroke-width="2" stroke-linecap="round" stroke-linejoin="round"/>
</svg>
